<svg width="207" height="238" viewBox="0 0 207 238" fill="none" xmlns="http://www.w3.org/2000/svg">
<path d="M166.204 156.241H103.39V186.747H166.204V156.241Z" fill="#FFCCB3"/>
<path d="M103.02 175.048C95.6526 182.296 92.7542 217.993 93.1425 238H180.835C180.835 238 180.677 194.371 174.029 179.669C167.915 166.149 157.752 186.093 103.02 175.048Z" fill="#1F2D49"/>
<path d="M155.65 17.4073C155.65 17.4073 162.926 9.10791 177.049 7.90046C191.172 6.69301 195.398 19.0631 194.795 26.6631C194.191 34.2631 183.123 49.9599 185.336 56.601C187.55 63.2422 177.141 60.0222 176.006 46.7403C174.872 33.458 170.646 14.944 159.175 21.5847L155.65 17.4073Z" fill="#080B09"/>
<path d="M157.858 13.5224C157.858 13.5224 159.598 12.5144 160.858 14.8666C162.118 17.2187 164.472 21.9946 161.489 23.2611C158.506 24.5271 157.858 13.5224 157.858 13.5224Z" fill="#A45DFF"/>
<path d="M117.514 90.0136C117.514 90.0136 128.797 102.677 125.044 106.739C117.613 115.087 97.8468 130.777 91.3701 135.97C91.0905 136.184 90.7713 136.341 90.431 136.431C90.0903 136.521 89.7354 136.543 89.3865 136.495C89.0377 136.448 88.7018 136.331 88.398 136.153C88.0942 135.975 87.8289 135.738 87.6168 135.457L72.3019 115.322C71.7031 114.547 71.4239 113.572 71.5214 112.597C71.6192 111.622 72.0864 110.722 72.8274 110.081L102.492 84.5005L117.514 90.0136Z" fill="#A45DFF"/>
<path d="M99.7029 106.112C99.7029 106.112 85.6425 114.469 84.3754 131.261L87.1756 134.858C87.1756 134.858 88.9337 137.922 91.3704 135.97C93.8068 134.018 105.078 124.99 105.078 124.99L99.7029 106.112Z" fill="#A45DFF"/>
<path d="M112.849 112.478C121.62 112.478 128.73 105.368 128.73 96.5981C128.73 87.8275 121.62 80.7179 112.849 80.7179C104.079 80.7179 96.9692 87.8275 96.9692 96.5981C96.9692 105.368 104.079 112.478 112.849 112.478Z" fill="#A45DFF"/>
<path d="M71.4975 146.377L57.6192 128.002L70.7572 117.802L72.8161 116.144L87.2117 134.97L84.7051 136.773L71.4975 146.377Z" fill="#FFCCB3"/>
<path d="M84.7051 136.773C80.9876 131.796 73.9966 122.068 70.7572 117.802L72.8165 116.144L87.1756 134.858L84.7051 136.773Z" fill="#FF967C"/>
<path d="M64.3473 148.926C70.7139 148.926 75.8751 143.765 75.8751 137.398C75.8751 131.031 70.7139 125.87 64.3473 125.87C57.9807 125.87 52.8194 131.031 52.8194 137.398C52.8194 143.765 57.9807 148.926 64.3473 148.926Z" fill="#FFCCB3"/>
<path d="M74.1085 131.197C74.1085 131.197 36.9214 76.5848 35.2022 71.947C33.5296 67.4176 24.7457 78.3167 24.7457 78.3167L53.5266 141.11L74.1085 131.197Z" fill="#FFCCB3"/>
<path d="M125.304 55.0383L120.833 86.2061C120.833 86.2061 119.66 90.343 124.868 90.9694C130.077 91.5955 141.182 90.1964 145.148 85.9695C149.114 81.7429 147.727 79.6489 147.727 79.6489L139.315 45.8192L125.304 55.0383Z" fill="#FFCCB3"/>
<path d="M124.682 59.0715L135.617 55.2091L122.069 75.288L124.682 59.0715Z" fill="#FF967C"/>
<path d="M112.932 16.5401C112.932 16.5401 103.55 38.5834 108.439 53.6914C111.628 63.5439 118.572 65.3154 134.475 57.9319C149.057 51.1619 152.844 46.0402 152.844 46.0402L154.995 21.4678C154.995 21.4678 122.459 -3.1074 112.932 16.5401Z" fill="#FFCCB3"/>
<path d="M120.754 77.2449C120.754 77.2449 108.737 80.5839 106.298 82.5351C103.859 84.4862 102.085 100.345 98.4804 108.179C93.1439 119.776 89.6886 125.946 98.654 138.69C104.061 146.377 102.223 165.919 102.223 165.919H168.056C166.062 127.494 174.888 82.1968 174.888 82.1968L145.176 75.3504C138.477 76.5053 120.754 77.2449 120.754 77.2449Z" fill="#A45DFF"/>
<path d="M118.653 77.8649C118.653 77.8649 119.541 71.8249 122.382 71.3997C125.222 70.9741 142.577 68.3638 145.277 69.5004C147.976 70.6369 151.244 77.8649 151.244 77.8649C151.244 77.8649 145.703 91.38 137.746 92.0906C129.79 92.8009 116.096 90.3482 117.545 85.3233C118.992 80.2982 118.653 77.8649 118.653 77.8649Z" fill="#A45DFF"/>
<path d="M113.248 79.7011C113.248 79.7011 115.168 91.3578 125.594 91.1737C136.021 90.9899 151.172 75.3504 151.172 75.3504" stroke="white" stroke-width="0.878845" stroke-miterlimit="10"/>
<path d="M160.487 96.5978C160.487 96.5978 150.127 103.448 153.179 110.36C156.61 118.131 156.581 138.146 146.732 139.401C129.159 141.639 136.794 144.712 144.92 146.675C153.045 148.639 149.718 148.641 149.718 157.058C149.718 163.049 168.545 168.244 168.056 163.403C164.782 131.016 178.39 110.509 160.487 96.5978Z" fill="#A45DFF"/>
<path d="M112.096 48.9714L120.823 49.4031C120.792 49.5105 120.744 49.6574 120.676 49.83C120.527 50.2054 120.281 50.6995 119.891 51.1779C119.116 52.1262 117.764 53.0281 115.428 52.7918C113.953 52.5091 113.114 51.5172 112.639 50.5781C112.401 50.1075 112.257 49.654 112.172 49.3178C112.137 49.1797 112.113 49.0621 112.096 48.9714Z" fill="#E56441" stroke="#E56441" stroke-width="0.647595"/>
<path d="M112.671 34.4806C113.036 33.1286 112.588 31.8322 111.671 31.5846C110.753 31.337 109.714 32.2325 109.349 33.5845C108.985 34.9365 109.433 36.233 110.35 36.4805C111.268 36.7281 112.307 35.8327 112.671 34.4806Z" fill="#080B09"/>
<path d="M126.172 38.3304C126.537 36.9784 126.089 35.682 125.172 35.4344C124.254 35.1868 123.215 36.0823 122.85 37.4343C122.485 38.7863 122.934 40.0828 123.851 40.3303C124.768 40.5779 125.808 39.6825 126.172 38.3304Z" fill="#080B09"/>
<path d="M109.257 27.4975L116.12 29.4701C116.24 29.494 116.364 29.4735 116.47 29.4128C116.575 29.3521 116.656 29.2553 116.695 29.1401C116.726 28.9235 116.714 28.7029 116.658 28.4915C116.601 28.2801 116.503 28.082 116.368 27.9098C116.233 27.7372 116.065 27.594 115.873 27.4886C115.681 27.3833 115.47 27.3178 115.253 27.296L109.358 26.6757C108.906 26.554 108.692 27.3451 109.257 27.4975Z" fill="#080B09"/>
<path d="M132.721 33.3642L123.414 31.4595C123.498 31.1826 123.64 30.9265 123.829 30.7072C124.018 30.4883 124.251 30.3114 124.513 30.1876C124.775 30.0641 125.059 29.9966 125.349 29.9898C125.638 29.983 125.926 30.0369 126.193 30.148L132.987 32.8296C133.213 32.8906 133.06 33.4556 132.721 33.3642Z" fill="#080B09"/>
<path d="M116.822 34.8673L112.408 40.8122L114.07 43.1626" stroke="#E56441" stroke-width="1.44984" stroke-linecap="round"/>
<path d="M125.032 99.7261C125.886 99.7261 126.579 97.8114 126.579 95.45C126.579 93.0883 125.886 91.174 125.032 91.174C124.177 91.174 123.484 93.0883 123.484 95.45C123.484 97.8114 124.177 99.7261 125.032 99.7261Z" fill="white"/>
<path d="M196.37 158.558L173.42 160.438L169.502 143.806L164.783 131.016L188.935 128.125L191.955 142.44L196.37 158.558Z" fill="#FFCCB3"/>
<path d="M189.75 131.991L190.597 136.005L166.812 136.517L165.247 132.277L189.75 131.991Z" fill="#FF967C"/>
<path d="M170.939 113.458C179.71 113.458 186.819 106.349 186.819 97.5785C186.819 88.8079 179.71 81.6982 170.939 81.6982C162.169 81.6982 155.059 88.8079 155.059 97.5785C155.059 106.349 162.169 113.458 170.939 113.458Z" fill="#A45DFF"/>
<path d="M167.876 90.1125C167.876 90.1125 184.613 87.3652 186.034 92.7095C189.104 103.456 192.878 120.709 193.796 128.959C193.827 129.31 193.789 129.664 193.682 130C193.576 130.335 193.405 130.647 193.177 130.916C192.95 131.185 192.672 131.406 192.359 131.567C192.046 131.728 191.704 131.826 191.353 131.854L166.147 134.005C165.172 134.096 164.199 133.81 163.428 133.206C162.657 132.601 162.147 131.724 162.002 130.756L155.176 99.8464L167.876 90.1125Z" fill="#A45DFF"/>
<path d="M118.781 14.4447C118.781 14.4447 119.374 25.1515 128.445 30.3403C128.445 30.3403 131.097 38.5521 140.996 40.4834C140.996 40.4834 140.412 32.9356 145.13 33.0154C153.142 33.1511 149.201 45.3044 143.784 47.2985C140.103 48.6532 137.886 53.4629 143.351 64.4233C155.898 59.9478 164.722 41.8743 161.263 21.8221C158.492 5.76449 138.585 0.520402 134.494 1.04348C134.494 1.04348 117.509 -4.82428 108.565 11.2691C100.919 25.0267 108.059 33.2374 108.059 33.2374L112.134 20.9931C112.134 20.9931 113.836 22.1883 118.781 14.4447Z" fill="#080B09"/>
<path d="M196.455 198.235H135.668C134.492 198.235 133.357 197.805 132.475 197.028C131.594 196.249 131.027 195.176 130.881 194.01L125.27 149.231C125.185 148.552 125.245 147.863 125.447 147.209C125.648 146.555 125.987 145.951 126.44 145.439C126.892 144.925 127.449 144.514 128.073 144.233C128.697 143.951 129.373 143.806 130.057 143.806H202.065C202.75 143.806 203.426 143.951 204.05 144.233C204.674 144.514 205.23 144.925 205.683 145.439C206.136 145.951 206.474 146.555 206.676 147.209C206.878 147.863 206.938 148.552 206.853 149.231L201.243 194.01C201.096 195.176 200.529 196.249 199.648 197.028C198.766 197.805 197.631 198.235 196.455 198.235Z" fill="url(#paint0_linear_3_335)"/>
<path d="M166.204 174.452C168.561 174.452 170.471 172.542 170.471 170.186C170.471 167.829 168.561 165.919 166.204 165.919C163.848 165.919 161.938 167.829 161.938 170.186C161.938 172.542 163.848 174.452 166.204 174.452Z" fill="#8A7474"/>
<path d="M26.3262 81.9042L22.6633 74.8767C22.6633 74.8767 9.7111 67.4677 8.21006 64.7892C6.70868 62.11 6.11877 54.4616 8.77645 52.5033C8.77645 52.5033 -1.5576 44.7417 0.201569 43.1691C1.95528 41.4825 22.2578 56.5649 22.2578 56.5649C22.2578 56.5649 19.7863 45.4534 23.5423 44.9327C24.5599 49.2394 26.303 53.3415 28.6974 57.0631C32.6519 63.178 33.1392 68.6543 33.1392 68.6543L37.8002 77.5999L26.3262 81.9042Z" fill="#FFCCB3"/>
<path d="M9.47275 52.6998L15.7309 56.6437" stroke="#FF967C" stroke-width="1.85982" stroke-linecap="round" stroke-linejoin="round"/>
<path d="M8.53979 57.2117L13.8514 60.5132" stroke="#FF967C" stroke-width="1.85982" stroke-linecap="round" stroke-linejoin="round"/>
<path d="M9.57202 62.0896L13.1149 64.3285" stroke="#FF967C" stroke-width="1.85982" stroke-linecap="round" stroke-linejoin="round"/>
<path d="M184.077 196.408C184.077 196.408 187.29 196.675 186.806 198.296C186.322 199.917 183.454 199.169 180.835 200.79C178.216 202.411 167.861 203.568 162.69 202.706C157.517 201.844 156.081 196.408 156.081 196.408C156.081 196.408 155.216 191.25 164.352 190.721C173.488 190.191 177.739 193.122 179.328 196.3L184.077 196.408Z" fill="#FFCCB3"/>
<path d="M159.965 191.522L161.938 196.829" stroke="#E56441" stroke-width="1.44984" stroke-linecap="round"/>
<path d="M165.075 190.658L167.048 195.965" stroke="#E56441" stroke-width="1.44984" stroke-linecap="round"/>
<path d="M170.471 191.107L172.444 196.414" stroke="#E56441" stroke-width="1.44984" stroke-linecap="round"/>
<defs>
<linearGradient id="paint0_linear_3_335" x1="164.029" y1="143.677" x2="172.422" y2="259.827" gradientUnits="userSpaceOnUse">
<stop stop-color="white"/>
<stop offset="1" stop-color="#94B9FF"/>
</linearGradient>
</defs>
</svg>
