<svg width="282" height="324" viewBox="0 0 282 324" fill="none" xmlns="http://www.w3.org/2000/svg">
<path d="M226.543 212.962H140.924V254.543H226.543V212.962Z" fill="#FFCCB3"/>
<path d="M140.42 238.597C130.378 248.477 126.428 297.134 126.957 324.403H246.485C246.485 324.403 246.27 264.936 237.208 244.896C228.875 226.467 215.022 253.652 140.42 238.597Z" fill="#1F2D49"/>
<path d="M212.157 23.7268C212.157 23.7268 222.074 12.4144 241.325 10.7686C260.576 9.12283 266.336 25.9838 265.513 36.3428C264.69 46.7019 249.603 68.0973 252.621 77.1494C255.638 86.2015 241.45 81.8126 239.903 63.7088C238.357 45.6046 232.597 20.3692 216.961 29.4208L212.157 23.7268Z" fill="#080B09"/>
<path d="M215.167 18.4315C215.167 18.4315 217.539 17.0576 219.256 20.2637C220.974 23.4698 224.182 29.9795 220.116 31.7057C216.05 33.4314 215.167 18.4315 215.167 18.4315Z" fill="#6F43EE"/>
<path d="M160.176 122.692C160.176 122.692 175.555 139.952 170.44 145.489C160.311 156.868 133.369 178.254 124.541 185.333C124.16 185.625 123.725 185.838 123.261 185.961C122.797 186.084 122.313 186.114 121.837 186.049C121.362 185.983 120.904 185.825 120.49 185.582C120.076 185.339 119.714 185.017 119.425 184.633L98.5503 157.188C97.7342 156.132 97.3535 154.803 97.4864 153.474C97.6198 152.145 98.2566 150.918 99.2666 150.045L139.701 115.177L160.176 122.692Z" fill="#6F43EE"/>
<path d="M135.899 144.635C135.899 144.635 116.734 156.026 115.007 178.914L118.824 183.817C118.824 183.817 121.22 187.993 124.541 185.333C127.862 182.672 143.225 170.366 143.225 170.366L135.899 144.635Z" fill="#6F43EE"/>
<path d="M153.818 153.312C165.772 153.312 175.464 143.621 175.464 131.667C175.464 119.712 165.772 110.022 153.818 110.022C141.863 110.022 132.173 119.712 132.173 131.667C132.173 143.621 141.863 153.312 153.818 153.312Z" fill="#6F43EE"/>
<path d="M97.4539 199.518L78.5373 174.472L96.4449 160.569L99.2512 158.309L118.873 183.97L115.456 186.427L97.4539 199.518Z" fill="#FFCCB3"/>
<path d="M115.456 186.427C110.389 179.643 100.86 166.384 96.4449 160.569L99.2517 158.309L118.824 183.817L115.456 186.427Z" fill="#FF967C"/>
<path d="M87.7079 202.992C96.3859 202.992 103.421 195.957 103.421 187.279C103.421 178.601 96.3859 171.566 87.7079 171.566C79.0299 171.566 71.995 178.601 71.995 187.279C71.995 195.957 79.0299 202.992 87.7079 202.992Z" fill="#FFCCB3"/>
<path d="M101.013 178.826C101.013 178.826 50.3254 104.388 47.9819 98.0665C45.7022 91.8928 33.7294 106.749 33.7294 106.749L72.9589 192.338L101.013 178.826Z" fill="#FFCCB3"/>
<path d="M170.794 75.0193L164.701 117.502C164.701 117.502 163.101 123.141 170.2 123.995C177.299 124.848 192.436 122.941 197.842 117.18C203.248 111.419 201.357 108.565 201.357 108.565L189.892 62.4534L170.794 75.0193Z" fill="#FFCCB3"/>
<path d="M169.946 80.5168L184.851 75.2522L166.385 102.62L169.946 80.5168Z" fill="#FF967C"/>
<path d="M153.93 22.5448C153.93 22.5448 141.143 52.5907 147.807 73.1834C152.153 86.6129 161.619 89.0274 183.295 78.9635C203.17 69.7357 208.333 62.7546 208.333 62.7546L211.264 29.2614C211.264 29.2614 166.917 -4.2355 153.93 22.5448Z" fill="#FFCCB3"/>
<path d="M164.593 105.288C164.593 105.288 148.212 109.839 144.888 112.499C141.564 115.158 139.146 136.775 134.233 147.452C126.959 163.259 122.249 171.669 134.469 189.04C141.84 199.518 139.334 226.154 139.334 226.154H229.067C226.348 173.779 238.379 112.037 238.379 112.037L197.881 102.706C188.749 104.28 164.593 105.288 164.593 105.288Z" fill="#6F43EE"/>
<path d="M161.728 106.133C161.728 106.133 162.94 97.9002 166.811 97.3206C170.682 96.7405 194.338 93.1826 198.018 94.7317C201.697 96.2808 206.151 106.133 206.151 106.133C206.151 106.133 198.599 124.555 187.754 125.523C176.91 126.491 158.244 123.148 160.218 116.299C162.191 109.45 161.728 106.133 161.728 106.133Z" fill="#6F43EE"/>
<path d="M154.361 108.636C154.361 108.636 156.978 124.524 171.19 124.273C185.402 124.023 206.053 102.706 206.053 102.706" stroke="white" stroke-width="0.878845" stroke-miterlimit="10"/>
<path d="M218.751 131.667C218.751 131.667 204.629 141.003 208.788 150.424C213.466 161.017 213.426 188.299 200.002 190.009C176.049 193.059 186.456 197.248 197.531 199.924C208.606 202.6 204.072 202.603 204.072 214.077C204.072 222.243 229.734 229.323 229.067 222.725C224.605 178.58 243.153 150.627 218.751 131.667Z" fill="#6F43EE"/>
<path d="M152.791 66.7499L164.686 67.3383C164.644 67.4847 164.579 67.685 164.486 67.9202C164.283 68.4319 163.948 69.1054 163.415 69.7575C162.36 71.0501 160.517 72.2794 157.332 71.9573C155.322 71.572 154.178 70.22 153.531 68.94C153.207 68.2986 153.01 67.6804 152.895 67.2221C152.847 67.0339 152.814 66.8735 152.791 66.7499Z" fill="#E56441" stroke="#E56441" stroke-width="0.647595"/>
<path d="M153.576 46.9985C154.073 45.1556 153.462 43.3885 152.211 43.0511C150.961 42.7136 149.544 43.9342 149.048 45.777C148.55 47.6199 149.161 49.387 150.411 49.7244C151.662 50.0619 153.079 48.8413 153.576 46.9985Z" fill="#080B09"/>
<path d="M171.978 52.2459C172.475 50.403 171.864 48.6359 170.614 48.2984C169.363 47.961 167.947 49.1815 167.45 51.0244C166.952 52.8673 167.563 54.6344 168.814 54.9718C170.064 55.3092 171.481 54.0887 171.978 52.2459Z" fill="#080B09"/>
<path d="M148.922 37.4802L158.277 40.1689C158.44 40.2015 158.609 40.1736 158.753 40.0909C158.897 40.0081 159.006 39.8761 159.06 39.719C159.103 39.4239 159.086 39.1232 159.009 38.835C158.932 38.5469 158.798 38.2768 158.614 38.0421C158.43 37.8069 158.201 37.6117 157.939 37.4681C157.678 37.3245 157.39 37.2352 157.094 37.2055L149.059 36.3601C148.443 36.1941 148.152 37.2724 148.922 37.4802Z" fill="#080B09"/>
<path d="M180.904 45.4768L168.219 42.8805C168.333 42.5031 168.526 42.154 168.783 41.8552C169.041 41.5568 169.359 41.3156 169.716 41.1468C170.073 40.9786 170.461 40.8866 170.855 40.8773C171.249 40.868 171.642 40.9414 172.006 41.0929L181.266 44.748C181.574 44.8312 181.366 45.6013 180.904 45.4768Z" fill="#080B09"/>
<path d="M159.233 47.5255L153.216 55.6286L155.482 58.8323" stroke="#E56441" stroke-width="1.44984" stroke-linecap="round"/>
<path d="M170.423 135.931C171.588 135.931 172.533 133.321 172.533 130.102C172.533 126.883 171.588 124.274 170.423 124.274C169.258 124.274 168.314 126.883 168.314 130.102C168.314 133.321 169.258 135.931 170.423 135.931Z" fill="white"/>
<path d="M267.66 216.121L236.378 218.684L231.038 196.013L224.605 178.58L257.526 174.64L261.642 194.151L267.66 216.121Z" fill="#FFCCB3"/>
<path d="M258.637 179.909L259.791 185.38L227.371 186.077L225.239 180.298L258.637 179.909Z" fill="#FF967C"/>
<path d="M232.997 154.648C244.951 154.648 254.642 144.958 254.642 133.003C254.642 121.049 244.951 111.358 232.997 111.358C221.043 111.358 211.351 121.049 211.351 133.003C211.351 144.958 221.043 154.648 232.997 154.648Z" fill="#6F43EE"/>
<path d="M228.822 122.827C228.822 122.827 251.635 119.082 253.571 126.367C257.757 141.015 262.901 164.531 264.152 175.776C264.194 176.255 264.142 176.737 263.997 177.194C263.852 177.652 263.619 178.077 263.308 178.443C262.999 178.81 262.62 179.112 262.193 179.332C261.766 179.551 261.3 179.684 260.822 179.722L226.465 182.655C225.135 182.778 223.809 182.388 222.758 181.564C221.708 180.74 221.012 179.545 220.815 178.225L211.511 136.095L228.822 122.827Z" fill="#6F43EE"/>
<path d="M161.903 19.6887C161.903 19.6887 162.712 34.2825 175.075 41.3551C175.075 41.3551 178.691 52.548 192.184 55.1805C192.184 55.1805 191.387 44.8925 197.818 45.0013C208.739 45.1863 203.367 61.7516 195.984 64.4697C190.966 66.3163 187.944 72.872 195.393 87.8115C212.495 81.7113 224.522 57.0764 219.807 29.7443C216.031 7.85723 188.896 0.709329 183.321 1.42231C183.321 1.42231 160.169 -6.57568 147.978 15.3602C137.557 34.1124 147.289 45.3039 147.289 45.3039L152.843 28.6144C152.843 28.6144 155.163 30.2435 161.903 19.6887Z" fill="#080B09"/>
<path d="M267.776 270.202H184.921C183.318 270.202 181.771 269.617 180.569 268.556C179.368 267.496 178.594 266.033 178.395 264.443L170.748 203.408C170.632 202.482 170.714 201.543 170.989 200.652C171.264 199.76 171.725 198.937 172.343 198.238C172.959 197.539 173.718 196.979 174.568 196.595C175.419 196.211 176.341 196.013 177.273 196.013H275.423C276.356 196.013 277.278 196.211 278.128 196.595C278.978 196.979 279.737 197.539 280.354 198.238C280.972 198.937 281.433 199.76 281.708 200.652C281.983 201.543 282.065 202.482 281.949 203.408L274.302 264.443C274.102 266.033 273.329 267.496 272.128 268.556C270.926 269.617 269.379 270.202 267.776 270.202Z" fill="url(#paint0_linear_3_284)"/>
<path d="M226.543 237.785C229.755 237.785 232.359 235.181 232.359 231.97C232.359 228.757 229.755 226.154 226.543 226.154C223.331 226.154 220.727 228.757 220.727 231.97C220.727 235.181 223.331 237.785 226.543 237.785Z" fill="#8A7474"/>
<path d="M35.8836 111.639L30.8909 102.06C30.8909 102.06 13.2366 91.9611 11.1906 88.3103C9.1442 84.6585 8.34013 74.2334 11.9626 71.5641C11.9626 71.5641 -2.12307 60.9847 0.274746 58.8412C2.66513 56.5423 30.3383 77.1002 30.3383 77.1002C30.3383 77.1002 26.9696 61.9547 32.0891 61.245C33.4761 67.1152 35.852 72.7066 39.1157 77.7792C44.5058 86.1142 45.17 93.5786 45.17 93.5786L51.5231 105.772L35.8836 111.639Z" fill="#FFCCB3"/>
<path d="M12.9117 71.8318L21.4419 77.2075" stroke="#FF967C" stroke-width="1.85982" stroke-linecap="round" stroke-linejoin="round"/>
<path d="M11.6401 77.9818L18.88 82.4819" stroke="#FF967C" stroke-width="1.85982" stroke-linecap="round" stroke-linejoin="round"/>
<path d="M13.047 84.6306L17.8761 87.6823" stroke="#FF967C" stroke-width="1.85982" stroke-linecap="round" stroke-linejoin="round"/>
<path d="M250.904 267.711C250.904 267.711 255.284 268.075 254.624 270.285C253.965 272.495 250.055 271.475 246.485 273.685C242.915 275.894 228.802 277.471 221.752 276.297C214.702 275.122 212.744 267.711 212.744 267.711C212.744 267.711 211.566 260.682 224.018 259.96C236.471 259.237 242.265 263.233 244.431 267.565L250.904 267.711Z" fill="#FFCCB3"/>
<path d="M218.038 261.052L220.727 268.285" stroke="#E56441" stroke-width="1.44984" stroke-linecap="round"/>
<path d="M225.003 259.875L227.693 267.108" stroke="#E56441" stroke-width="1.44984" stroke-linecap="round"/>
<path d="M232.359 260.487L235.048 267.72" stroke="#E56441" stroke-width="1.44984" stroke-linecap="round"/>
<defs>
<linearGradient id="paint0_linear_3_284" x1="223.577" y1="195.837" x2="235.019" y2="354.155" gradientUnits="userSpaceOnUse">
<stop stop-color="white"/>
<stop offset="1" stop-color="#94B9FF"/>
</linearGradient>
</defs>
</svg>
